<svg width="1600" height="637" viewBox="0 0 1600 637" fill="none" xmlns="http://www.w3.org/2000/svg">
<mask id="path-1-inside-1_521_4480" fill="white">
<path d="M-5 34C-5 15.2223 10.2223 0 29 0H121C139.778 0 155 15.2223 155 34V126C155 144.778 139.778 160 121 160H29C10.2223 160 -5 144.778 -5 126V34Z"/>
<path d="M-5 352C-5 333.222 10.2223 318 29 318H121C139.778 318 155 333.222 155 352V444C155 462.778 139.778 478 121 478H29C10.2223 478 -5 462.778 -5 444V352Z"/>
<path d="M-5 193C-5 174.222 10.2223 159 29 159H121C139.778 159 155 174.222 155 193V285C155 303.778 139.778 319 121 319H29C10.2223 319 -5 303.778 -5 285V193Z"/>
<path d="M-5 511C-5 492.222 10.2223 477 29 477H121C139.778 477 155 492.222 155 511V603C155 621.778 139.778 637 121 637H29C10.2223 637 -5 621.778 -5 603V511Z"/>
<path d="M634 34C634 15.2223 649.222 0 668 0H761C779.778 0 795 15.2223 795 34V126C795 144.778 779.778 160 761 160H668C649.222 160 634 144.778 634 126V34Z"/>
<path d="M634 352C634 333.222 649.222 318 668 318H761C779.778 318 795 333.222 795 352V444C795 462.778 779.778 478 761 478H668C649.222 478 634 462.778 634 444V352Z"/>
<path d="M634 193C634 174.222 649.222 159 668 159H761C779.778 159 795 174.222 795 193V285C795 303.778 779.778 319 761 319H668C649.222 319 634 303.778 634 285V193Z"/>
<path d="M634 511C634 492.222 649.222 477 668 477H761C779.778 477 795 492.222 795 511V603C795 621.778 779.778 637 761 637H668C649.222 637 634 621.778 634 603V511Z"/>
<path d="M314 34C314 15.2223 329.222 0 348 0H441C459.778 0 475 15.2223 475 34V126C475 144.778 459.778 160 441 160H348C329.222 160 314 144.778 314 126V34Z"/>
<path d="M314 352C314 333.222 329.222 318 348 318H441C459.778 318 475 333.222 475 352V444C475 462.778 459.778 478 441 478H348C329.222 478 314 462.778 314 444V352Z"/>
<path d="M314 193C314 174.222 329.222 159 348 159H441C459.778 159 475 174.222 475 193V285C475 303.778 459.778 319 441 319H348C329.222 319 314 303.778 314 285V193Z"/>
<path d="M314 511C314 492.222 329.222 477 348 477H441C459.778 477 475 492.222 475 511V603C475 621.778 459.778 637 441 637H348C329.222 637 314 621.778 314 603V511Z"/>
<path d="M155 34C155 15.2223 170.222 0 189 0H281C299.778 0 315 15.2223 315 34V126C315 144.778 299.778 160 281 160H189C170.222 160 155 144.778 155 126V34Z"/>
<path d="M155 352C155 333.222 170.222 318 189 318H281C299.778 318 315 333.222 315 352V444C315 462.778 299.778 478 281 478H189C170.222 478 155 462.778 155 444V352Z"/>
<path d="M155 193C155 174.222 170.222 159 189 159H281C299.778 159 315 174.222 315 193V285C315 303.778 299.778 319 281 319H189C170.222 319 155 303.778 155 285V193Z"/>
<path d="M155 511C155 492.222 170.222 477 189 477H281C299.778 477 315 492.222 315 511V603C315 621.778 299.778 637 281 637H189C170.222 637 155 621.778 155 603V511Z"/>
<path d="M794 34C794 15.2223 809.222 0 828 0H921C939.778 0 955 15.2223 955 34V126C955 144.778 939.778 160 921 160H828C809.222 160 794 144.778 794 126V34Z"/>
<path d="M794 352C794 333.222 809.222 318 828 318H921C939.778 318 955 333.222 955 352V444C955 462.778 939.778 478 921 478H828C809.222 478 794 462.778 794 444V352Z"/>
<path d="M794 193C794 174.222 809.222 159 828 159H921C939.778 159 955 174.222 955 193V285C955 303.778 939.778 319 921 319H828C809.222 319 794 303.778 794 285V193Z"/>
<path d="M794 511C794 492.222 809.222 477 828 477H921C939.778 477 955 492.222 955 511V603C955 621.778 939.778 637 921 637H828C809.222 637 794 621.778 794 603V511Z"/>
<path d="M474 34C474 15.2223 489.222 0 508 0H601C619.778 0 635 15.2223 635 34V126C635 144.778 619.778 160 601 160H508C489.222 160 474 144.778 474 126V34Z"/>
<path d="M474 352C474 333.222 489.222 318 508 318H601C619.778 318 635 333.222 635 352V444C635 462.778 619.778 478 601 478H508C489.222 478 474 462.778 474 444V352Z"/>
<path d="M474 193C474 174.222 489.222 159 508 159H601C619.778 159 635 174.222 635 193V285C635 303.778 619.778 319 601 319H508C489.222 319 474 303.778 474 285V193Z"/>
<path d="M474 511C474 492.222 489.222 477 508 477H601C619.778 477 635 492.222 635 511V603C635 621.778 619.778 637 601 637H508C489.222 637 474 621.778 474 603V511Z"/>
</mask>
<path d="M154.5 34V126H155.5V34H154.5ZM154.5 352V444H155.5V352H154.5ZM154.5 193V285H155.5V193H154.5ZM154.5 511V603H155.5V511H154.5ZM-4.5 34V126H-3.5V34H-4.5ZM-4.5 126C-4.5 144.502 -19.4985 159.5 -38 159.5V160.5C-18.9462 160.5 -3.5 145.054 -3.5 126H-4.5ZM-38 0.5C-19.4985 0.5 -4.5 15.4985 -4.5 34H-3.5C-3.5 14.9462 -18.9462 -0.5 -38 -0.5V0.5ZM-4.5 352V444H-3.5V352H-4.5ZM-4.5 444C-4.5 462.502 -19.4985 477.5 -38 477.5V478.5C-18.9462 478.5 -3.5 463.054 -3.5 444H-4.5ZM-38 318.5C-19.4985 318.5 -4.5 333.498 -4.5 352H-3.5C-3.5 332.946 -18.9462 317.5 -38 317.5V318.5ZM-4.5 193V285H-3.5V193H-4.5ZM-4.5 285C-4.5 303.502 -19.4985 318.5 -38 318.5V319.5C-18.9462 319.5 -3.5 304.054 -3.5 285H-4.5ZM-38 159.5C-19.4985 159.5 -4.5 174.498 -4.5 193H-3.5C-3.5 173.946 -18.9462 158.5 -38 158.5V159.5ZM-4.5 511V603H-3.5V511H-4.5ZM-4.5 603C-4.5 621.502 -19.4985 636.5 -38 636.5V637.5C-18.9462 637.5 -3.5 622.054 -3.5 603H-4.5ZM-38 477.5C-19.4985 477.5 -4.5 492.498 -4.5 511H-3.5C-3.5 491.946 -18.9462 476.5 -38 476.5V477.5ZM29 1H121V-1H29V1ZM121 159H29V161H121V159ZM-4 126V34H-6V126H-4ZM29 159C10.7746 159 -4 144.225 -4 126H-6C-6 145.33 9.67003 161 29 161V159ZM154 126C154 144.225 139.225 159 121 159V161C140.33 161 156 145.33 156 126H154ZM121 1C139.225 1 154 15.7746 154 34H156C156 14.67 140.33 -1 121 -1V1ZM29 -1C9.67003 -1 -6 14.67 -6 34H-4C-4 15.7746 10.7746 1 29 1V-1ZM29 319H121V317H29V319ZM121 477H29V479H121V477ZM-4 444V352H-6V444H-4ZM29 477C10.7746 477 -4 462.225 -4 444H-6C-6 463.33 9.67003 479 29 479V477ZM154 444C154 462.225 139.225 477 121 477V479C140.33 479 156 463.33 156 444H154ZM121 319C139.225 319 154 333.775 154 352H156C156 332.67 140.33 317 121 317V319ZM29 317C9.67003 317 -6 332.67 -6 352H-4C-4 333.775 10.7746 319 29 319V317ZM29 160H121V158H29V160ZM121 318H29V320H121V318ZM-4 285V193H-6V285H-4ZM29 318C10.7746 318 -4 303.225 -4 285H-6C-6 304.33 9.67003 320 29 320V318ZM154 285C154 303.225 139.225 318 121 318V320C140.33 320 156 304.33 156 285H154ZM121 160C139.225 160 154 174.775 154 193H156C156 173.67 140.33 158 121 158V160ZM29 158C9.67003 158 -6 173.67 -6 193H-4C-4 174.775 10.7746 160 29 160V158ZM29 478H121V476H29V478ZM121 636H29V638H121V636ZM-4 603V511H-6V603H-4ZM29 636C10.7746 636 -4 621.225 -4 603H-6C-6 622.33 9.67003 638 29 638V636ZM154 603C154 621.225 139.225 636 121 636V638C140.33 638 156 622.33 156 603H154ZM121 478C139.225 478 154 492.775 154 511H156C156 491.67 140.33 476 121 476V478ZM29 476C9.67003 476 -6 491.67 -6 511H-4C-4 492.775 10.7746 478 29 478V476ZM668 1H761V-1H668V1ZM794 34V126H796V34H794ZM761 159H668V161H761V159ZM635 126V34H633V126H635ZM668 159C649.775 159 635 144.225 635 126H633C633 145.33 648.67 161 668 161V159ZM794 126C794 144.225 779.225 159 761 159V161C780.33 161 796 145.33 796 126H794ZM761 1C779.225 1 794 15.7746 794 34H796C796 14.67 780.33 -1 761 -1V1ZM668 -1C648.67 -1 633 14.67 633 34H635C635 15.7746 649.775 1 668 1V-1ZM668 319H761V317H668V319ZM794 352V444H796V352H794ZM761 477H668V479H761V477ZM635 444V352H633V444H635ZM668 477C649.775 477 635 462.225 635 444H633C633 463.33 648.67 479 668 479V477ZM794 444C794 462.225 779.225 477 761 477V479C780.33 479 796 463.33 796 444H794ZM761 319C779.225 319 794 333.775 794 352H796C796 332.67 780.33 317 761 317V319ZM668 317C648.67 317 633 332.67 633 352H635C635 333.775 649.775 319 668 319V317ZM668 160H761V158H668V160ZM794 193V285H796V193H794ZM761 318H668V320H761V318ZM635 285V193H633V285H635ZM668 318C649.775 318 635 303.225 635 285H633C633 304.33 648.67 320 668 320V318ZM794 285C794 303.225 779.225 318 761 318V320C780.33 320 796 304.33 796 285H794ZM761 160C779.225 160 794 174.775 794 193H796C796 173.67 780.33 158 761 158V160ZM668 158C648.67 158 633 173.67 633 193H635C635 174.775 649.775 160 668 160V158ZM668 478H761V476H668V478ZM794 511V603H796V511H794ZM761 636H668V638H761V636ZM635 603V511H633V603H635ZM668 636C649.775 636 635 621.225 635 603H633C633 622.33 648.67 638 668 638V636ZM794 603C794 621.225 779.225 636 761 636V638C780.33 638 796 622.33 796 603H794ZM761 478C779.225 478 794 492.775 794 511H796C796 491.67 780.33 476 761 476V478ZM668 476C648.67 476 633 491.67 633 511H635C635 492.775 649.775 478 668 478V476ZM348 1H441V-1H348V1ZM474 34V126H476V34H474ZM441 159H348V161H441V159ZM315 126V34H313V126H315ZM348 159C329.775 159 315 144.225 315 126H313C313 145.33 328.67 161 348 161V159ZM474 126C474 144.225 459.225 159 441 159V161C460.33 161 476 145.33 476 126H474ZM441 1C459.225 1 474 15.7746 474 34H476C476 14.67 460.33 -1 441 -1V1ZM348 -1C328.67 -1 313 14.67 313 34H315C315 15.7746 329.775 1 348 1V-1ZM348 319H441V317H348V319ZM474 352V444H476V352H474ZM441 477H348V479H441V477ZM315 444V352H313V444H315ZM348 477C329.775 477 315 462.225 315 444H313C313 463.33 328.67 479 348 479V477ZM474 444C474 462.225 459.225 477 441 477V479C460.33 479 476 463.33 476 444H474ZM441 319C459.225 319 474 333.775 474 352H476C476 332.67 460.33 317 441 317V319ZM348 317C328.67 317 313 332.67 313 352H315C315 333.775 329.775 319 348 319V317ZM348 160H441V158H348V160ZM474 193V285H476V193H474ZM441 318H348V320H441V318ZM315 285V193H313V285H315ZM348 318C329.775 318 315 303.225 315 285H313C313 304.33 328.67 320 348 320V318ZM474 285C474 303.225 459.225 318 441 318V320C460.33 320 476 304.33 476 285H474ZM441 160C459.225 160 474 174.775 474 193H476C476 173.67 460.33 158 441 158V160ZM348 158C328.67 158 313 173.67 313 193H315C315 174.775 329.775 160 348 160V158ZM348 478H441V476H348V478ZM474 511V603H476V511H474ZM441 636H348V638H441V636ZM315 603V511H313V603H315ZM348 636C329.775 636 315 621.225 315 603H313C313 622.33 328.67 638 348 638V636ZM474 603C474 621.225 459.225 636 441 636V638C460.33 638 476 622.33 476 603H474ZM441 478C459.225 478 474 492.775 474 511H476C476 491.67 460.33 476 441 476V478ZM348 476C328.67 476 313 491.67 313 511H315C315 492.775 329.775 478 348 478V476ZM189 1H281V-1H189V1ZM314 34V126H316V34H314ZM281 159H189V161H281V159ZM189 159C170.775 159 156 144.225 156 126H154C154 145.33 169.67 161 189 161V159ZM314 126C314 144.225 299.225 159 281 159V161C300.33 161 316 145.33 316 126H314ZM281 1C299.225 1 314 15.7746 314 34H316C316 14.67 300.33 -1 281 -1V1ZM189 -1C169.67 -1 154 14.67 154 34H156C156 15.7746 170.775 1 189 1V-1ZM189 319H281V317H189V319ZM314 352V444H316V352H314ZM281 477H189V479H281V477ZM189 477C170.775 477 156 462.225 156 444H154C154 463.33 169.67 479 189 479V477ZM314 444C314 462.225 299.225 477 281 477V479C300.33 479 316 463.33 316 444H314ZM281 319C299.225 319 314 333.775 314 352H316C316 332.67 300.33 317 281 317V319ZM189 317C169.67 317 154 332.67 154 352H156C156 333.775 170.775 319 189 319V317ZM189 160H281V158H189V160ZM314 193V285H316V193H314ZM281 318H189V320H281V318ZM189 318C170.775 318 156 303.225 156 285H154C154 304.33 169.67 320 189 320V318ZM314 285C314 303.225 299.225 318 281 318V320C300.33 320 316 304.33 316 285H314ZM281 160C299.225 160 314 174.775 314 193H316C316 173.67 300.33 158 281 158V160ZM189 158C169.67 158 154 173.67 154 193H156C156 174.775 170.775 160 189 160V158ZM189 478H281V476H189V478ZM314 511V603H316V511H314ZM281 636H189V638H281V636ZM189 636C170.775 636 156 621.225 156 603H154C154 622.33 169.67 638 189 638V636ZM314 603C314 621.225 299.225 636 281 636V638C300.33 638 316 622.33 316 603H314ZM281 478C299.225 478 314 492.775 314 511H316C316 491.67 300.33 476 281 476V478ZM189 476C169.67 476 154 491.67 154 511H156C156 492.775 170.775 478 189 478V476ZM828 1H921V-1H828V1ZM954 34V126H956V34H954ZM921 159H828V161H921V159ZM795 126V34H793V126H795ZM828 159C809.775 159 795 144.225 795 126H793C793 145.33 808.67 161 828 161V159ZM954 126C954 144.225 939.225 159 921 159V161C940.33 161 956 145.33 956 126H954ZM921 1C939.225 1 954 15.7746 954 34H956C956 14.67 940.33 -1 921 -1V1ZM828 -1C808.67 -1 793 14.67 793 34H795C795 15.7746 809.775 1 828 1V-1ZM828 319H921V317H828V319ZM954 352V444H956V352H954ZM921 477H828V479H921V477ZM795 444V352H793V444H795ZM828 477C809.775 477 795 462.225 795 444H793C793 463.33 808.67 479 828 479V477ZM954 444C954 462.225 939.225 477 921 477V479C940.33 479 956 463.33 956 444H954ZM921 319C939.225 319 954 333.775 954 352H956C956 332.67 940.33 317 921 317V319ZM828 317C808.67 317 793 332.67 793 352H795C795 333.775 809.775 319 828 319V317ZM828 160H921V158H828V160ZM954 193V285H956V193H954ZM921 318H828V320H921V318ZM795 285V193H793V285H795ZM828 318C809.775 318 795 303.225 795 285H793C793 304.33 808.67 320 828 320V318ZM954 285C954 303.225 939.225 318 921 318V320C940.33 320 956 304.33 956 285H954ZM921 160C939.225 160 954 174.775 954 193H956C956 173.67 940.33 158 921 158V160ZM828 158C808.67 158 793 173.67 793 193H795C795 174.775 809.775 160 828 160V158ZM828 478H921V476H828V478ZM954 511V603H956V511H954ZM921 636H828V638H921V636ZM795 603V511H793V603H795ZM828 636C809.775 636 795 621.225 795 603H793C793 622.33 808.67 638 828 638V636ZM954 603C954 621.225 939.225 636 921 636V638C940.33 638 956 622.33 956 603H954ZM921 478C939.225 478 954 492.775 954 511H956C956 491.67 940.33 476 921 476V478ZM828 476C808.67 476 793 491.67 793 511H795C795 492.775 809.775 478 828 478V476ZM508 1H601V-1H508V1ZM634 34V126H636V34H634ZM601 159H508V161H601V159ZM475 126V34H473V126H475ZM508 159C489.775 159 475 144.225 475 126H473C473 145.33 488.67 161 508 161V159ZM634 126C634 144.225 619.225 159 601 159V161C620.33 161 636 145.33 636 126H634ZM601 1C619.225 1 634 15.7746 634 34H636C636 14.67 620.33 -1 601 -1V1ZM508 -1C488.67 -1 473 14.67 473 34H475C475 15.7746 489.775 1 508 1V-1ZM508 319H601V317H508V319ZM634 352V444H636V352H634ZM601 477H508V479H601V477ZM475 444V352H473V444H475ZM508 477C489.775 477 475 462.225 475 444H473C473 463.33 488.67 479 508 479V477ZM634 444C634 462.225 619.225 477 601 477V479C620.33 479 636 463.33 636 444H634ZM601 319C619.225 319 634 333.775 634 352H636C636 332.67 620.33 317 601 317V319ZM508 317C488.67 317 473 332.67 473 352H475C475 333.775 489.775 319 508 319V317ZM508 160H601V158H508V160ZM634 193V285H636V193H634ZM601 318H508V320H601V318ZM475 285V193H473V285H475ZM508 318C489.775 318 475 303.225 475 285H473C473 304.33 488.67 320 508 320V318ZM634 285C634 303.225 619.225 318 601 318V320C620.33 320 636 304.33 636 285H634ZM601 160C619.225 160 634 174.775 634 193H636C636 173.67 620.33 158 601 158V160ZM508 158C488.67 158 473 173.67 473 193H475C475 174.775 489.775 160 508 160V158ZM508 478H601V476H508V478ZM634 511V603H636V511H634ZM601 636H508V638H601V636ZM475 603V511H473V603H475ZM508 636C489.775 636 475 621.225 475 603H473C473 622.33 488.67 638 508 638V636ZM634 603C634 621.225 619.225 636 601 636V638C620.33 638 636 622.33 636 603H634ZM601 478C619.225 478 634 492.775 634 511H636C636 491.67 620.33 476 601 476V478ZM508 476C488.67 476 473 491.67 473 511H475C475 492.775 489.775 478 508 478V476Z" fill="url(#paint0_linear_521_4480)" mask="url(#path-1-inside-1_521_4480)"/>
<mask id="path-3-inside-2_521_4480" fill="white">
<path d="M1914 34C1914 15.2223 1898.78 0 1880 0H1788C1769.22 0 1754 15.2223 1754 34V126C1754 144.778 1769.22 160 1788 160H1880C1898.78 160 1914 144.778 1914 126V34Z"/>
<path d="M1914 352C1914 333.222 1898.78 318 1880 318H1788C1769.22 318 1754 333.222 1754 352V444C1754 462.778 1769.22 478 1788 478H1880C1898.78 478 1914 462.778 1914 444V352Z"/>
<path d="M1914 193C1914 174.222 1898.78 159 1880 159H1788C1769.22 159 1754 174.222 1754 193V285C1754 303.778 1769.22 319 1788 319H1880C1898.78 319 1914 303.778 1914 285V193Z"/>
<path d="M1914 511C1914 492.222 1898.78 477 1880 477H1788C1769.22 477 1754 492.222 1754 511V603C1754 621.778 1769.22 637 1788 637H1880C1898.78 637 1914 621.778 1914 603V511Z"/>
<path d="M1275 34C1275 15.2223 1259.78 0 1241 0H1148C1129.22 0 1114 15.2223 1114 34V126C1114 144.778 1129.22 160 1148 160H1241C1259.78 160 1275 144.778 1275 126V34Z"/>
<path d="M1275 352C1275 333.222 1259.78 318 1241 318H1148C1129.22 318 1114 333.222 1114 352V444C1114 462.778 1129.22 478 1148 478H1241C1259.78 478 1275 462.778 1275 444V352Z"/>
<path d="M1275 193C1275 174.222 1259.78 159 1241 159H1148C1129.22 159 1114 174.222 1114 193V285C1114 303.778 1129.22 319 1148 319H1241C1259.78 319 1275 303.778 1275 285V193Z"/>
<path d="M1275 511C1275 492.222 1259.78 477 1241 477H1148C1129.22 477 1114 492.222 1114 511V603C1114 621.778 1129.22 637 1148 637H1241C1259.78 637 1275 621.778 1275 603V511Z"/>
<path d="M1595 34C1595 15.2223 1579.78 0 1561 0H1468C1449.22 0 1434 15.2223 1434 34V126C1434 144.778 1449.22 160 1468 160H1561C1579.78 160 1595 144.778 1595 126V34Z"/>
<path d="M1595 352C1595 333.222 1579.78 318 1561 318H1468C1449.22 318 1434 333.222 1434 352V444C1434 462.778 1449.22 478 1468 478H1561C1579.78 478 1595 462.778 1595 444V352Z"/>
<path d="M1595 193C1595 174.222 1579.78 159 1561 159H1468C1449.22 159 1434 174.222 1434 193V285C1434 303.778 1449.22 319 1468 319H1561C1579.78 319 1595 303.778 1595 285V193Z"/>
<path d="M1595 511C1595 492.222 1579.78 477 1561 477H1468C1449.22 477 1434 492.222 1434 511V603C1434 621.778 1449.22 637 1468 637H1561C1579.78 637 1595 621.778 1595 603V511Z"/>
<path d="M1754 34C1754 15.2223 1738.78 0 1720 0H1628C1609.22 0 1594 15.2223 1594 34V126C1594 144.778 1609.22 160 1628 160H1720C1738.78 160 1754 144.778 1754 126V34Z"/>
<path d="M1754 352C1754 333.222 1738.78 318 1720 318H1628C1609.22 318 1594 333.222 1594 352V444C1594 462.778 1609.22 478 1628 478H1720C1738.78 478 1754 462.778 1754 444V352Z"/>
<path d="M1754 193C1754 174.222 1738.78 159 1720 159H1628C1609.22 159 1594 174.222 1594 193V285C1594 303.778 1609.22 319 1628 319H1720C1738.78 319 1754 303.778 1754 285V193Z"/>
<path d="M1754 511C1754 492.222 1738.78 477 1720 477H1628C1609.22 477 1594 492.222 1594 511V603C1594 621.778 1609.22 637 1628 637H1720C1738.78 637 1754 621.778 1754 603V511Z"/>
<path d="M1115 34C1115 15.2223 1099.78 0 1081 0H988C969.222 0 954 15.2223 954 34V126C954 144.778 969.222 160 988 160H1081C1099.78 160 1115 144.778 1115 126V34Z"/>
<path d="M1115 352C1115 333.222 1099.78 318 1081 318H988C969.222 318 954 333.222 954 352V444C954 462.778 969.222 478 988 478H1081C1099.78 478 1115 462.778 1115 444V352Z"/>
<path d="M1115 193C1115 174.222 1099.78 159 1081 159H988C969.222 159 954 174.222 954 193V285C954 303.778 969.222 319 988 319H1081C1099.78 319 1115 303.778 1115 285V193Z"/>
<path d="M1115 511C1115 492.222 1099.78 477 1081 477H988C969.222 477 954 492.222 954 511V603C954 621.778 969.222 637 988 637H1081C1099.78 637 1115 621.778 1115 603V511Z"/>
<path d="M1435 34C1435 15.2223 1419.78 0 1401 0H1308C1289.22 0 1274 15.2223 1274 34V126C1274 144.778 1289.22 160 1308 160H1401C1419.78 160 1435 144.778 1435 126V34Z"/>
<path d="M1435 352C1435 333.222 1419.78 318 1401 318H1308C1289.22 318 1274 333.222 1274 352V444C1274 462.778 1289.22 478 1308 478H1401C1419.78 478 1435 462.778 1435 444V352Z"/>
<path d="M1435 193C1435 174.222 1419.78 159 1401 159H1308C1289.22 159 1274 174.222 1274 193V285C1274 303.778 1289.22 319 1308 319H1401C1419.78 319 1435 303.778 1435 285V193Z"/>
<path d="M1435 511C1435 492.222 1419.78 477 1401 477H1308C1289.22 477 1274 492.222 1274 511V603C1274 621.778 1289.22 637 1308 637H1401C1419.78 637 1435 621.778 1435 603V511Z"/>
</mask>
<path d="M1754.5 34V126H1753.5V34H1754.5ZM1754.5 352V444H1753.5V352H1754.5ZM1754.5 193V285H1753.5V193H1754.5ZM1754.5 511V603H1753.5V511H1754.5ZM1913.5 34V126H1912.5V34H1913.5ZM1913.5 126C1913.5 144.502 1928.5 159.5 1947 159.5V160.5C1927.95 160.5 1912.5 145.054 1912.5 126H1913.5ZM1947 0.5C1928.5 0.5 1913.5 15.4985 1913.5 34H1912.5C1912.5 14.9462 1927.95 -0.5 1947 -0.5V0.5ZM1913.5 352V444H1912.5V352H1913.5ZM1913.5 444C1913.5 462.502 1928.5 477.5 1947 477.5V478.5C1927.95 478.5 1912.5 463.054 1912.5 444H1913.5ZM1947 318.5C1928.5 318.5 1913.5 333.498 1913.5 352H1912.5C1912.5 332.946 1927.95 317.5 1947 317.5V318.5ZM1913.5 193V285H1912.5V193H1913.5ZM1913.5 285C1913.5 303.502 1928.5 318.5 1947 318.5V319.5C1927.95 319.5 1912.5 304.054 1912.5 285H1913.5ZM1947 159.5C1928.5 159.5 1913.5 174.498 1913.5 193H1912.5C1912.5 173.946 1927.95 158.5 1947 158.5V159.5ZM1913.5 511V603H1912.5V511H1913.5ZM1913.5 603C1913.5 621.502 1928.5 636.5 1947 636.5V637.5C1927.95 637.5 1912.5 622.054 1912.5 603H1913.5ZM1947 477.5C1928.5 477.5 1913.5 492.498 1913.5 511H1912.5C1912.5 491.946 1927.95 476.5 1947 476.5V477.5ZM1880 1H1788V-1H1880V1ZM1788 159H1880V161H1788V159ZM1913 126V34H1915V126H1913ZM1880 159C1898.23 159 1913 144.225 1913 126H1915C1915 145.33 1899.33 161 1880 161V159ZM1755 126C1755 144.225 1769.77 159 1788 159V161C1768.67 161 1753 145.33 1753 126H1755ZM1788 1C1769.77 1 1755 15.7746 1755 34H1753C1753 14.67 1768.67 -1 1788 -1V1ZM1880 -1C1899.33 -1 1915 14.67 1915 34H1913C1913 15.7746 1898.23 1 1880 1V-1ZM1880 319H1788V317H1880V319ZM1788 477H1880V479H1788V477ZM1913 444V352H1915V444H1913ZM1880 477C1898.23 477 1913 462.225 1913 444H1915C1915 463.33 1899.33 479 1880 479V477ZM1755 444C1755 462.225 1769.77 477 1788 477V479C1768.67 479 1753 463.33 1753 444H1755ZM1788 319C1769.77 319 1755 333.775 1755 352H1753C1753 332.67 1768.67 317 1788 317V319ZM1880 317C1899.33 317 1915 332.67 1915 352H1913C1913 333.775 1898.23 319 1880 319V317ZM1880 160H1788V158H1880V160ZM1788 318H1880V320H1788V318ZM1913 285V193H1915V285H1913ZM1880 318C1898.23 318 1913 303.225 1913 285H1915C1915 304.33 1899.33 320 1880 320V318ZM1755 285C1755 303.225 1769.77 318 1788 318V320C1768.67 320 1753 304.33 1753 285H1755ZM1788 160C1769.77 160 1755 174.775 1755 193H1753C1753 173.67 1768.67 158 1788 158V160ZM1880 158C1899.33 158 1915 173.67 1915 193H1913C1913 174.775 1898.23 160 1880 160V158ZM1880 478H1788V476H1880V478ZM1788 636H1880V638H1788V636ZM1913 603V511H1915V603H1913ZM1880 636C1898.23 636 1913 621.225 1913 603H1915C1915 622.33 1899.33 638 1880 638V636ZM1755 603C1755 621.225 1769.77 636 1788 636V638C1768.67 638 1753 622.33 1753 603H1755ZM1788 478C1769.77 478 1755 492.775 1755 511H1753C1753 491.67 1768.67 476 1788 476V478ZM1880 476C1899.33 476 1915 491.67 1915 511H1913C1913 492.775 1898.23 478 1880 478V476ZM1241 1H1148V-1H1241V1ZM1115 34V126H1113V34H1115ZM1148 159H1241V161H1148V159ZM1274 126V34H1276V126H1274ZM1241 159C1259.23 159 1274 144.225 1274 126H1276C1276 145.33 1260.33 161 1241 161V159ZM1115 126C1115 144.225 1129.77 159 1148 159V161C1128.67 161 1113 145.33 1113 126H1115ZM1148 1C1129.77 1 1115 15.7746 1115 34H1113C1113 14.67 1128.67 -1 1148 -1V1ZM1241 -1C1260.33 -1 1276 14.67 1276 34H1274C1274 15.7746 1259.23 1 1241 1V-1ZM1241 319H1148V317H1241V319ZM1115 352V444H1113V352H1115ZM1148 477H1241V479H1148V477ZM1274 444V352H1276V444H1274ZM1241 477C1259.23 477 1274 462.225 1274 444H1276C1276 463.33 1260.33 479 1241 479V477ZM1115 444C1115 462.225 1129.77 477 1148 477V479C1128.67 479 1113 463.33 1113 444H1115ZM1148 319C1129.77 319 1115 333.775 1115 352H1113C1113 332.67 1128.67 317 1148 317V319ZM1241 317C1260.33 317 1276 332.67 1276 352H1274C1274 333.775 1259.23 319 1241 319V317ZM1241 160H1148V158H1241V160ZM1115 193V285H1113V193H1115ZM1148 318H1241V320H1148V318ZM1274 285V193H1276V285H1274ZM1241 318C1259.23 318 1274 303.225 1274 285H1276C1276 304.33 1260.33 320 1241 320V318ZM1115 285C1115 303.225 1129.77 318 1148 318V320C1128.67 320 1113 304.33 1113 285H1115ZM1148 160C1129.77 160 1115 174.775 1115 193H1113C1113 173.67 1128.67 158 1148 158V160ZM1241 158C1260.33 158 1276 173.67 1276 193H1274C1274 174.775 1259.23 160 1241 160V158ZM1241 478H1148V476H1241V478ZM1115 511V603H1113V511H1115ZM1148 636H1241V638H1148V636ZM1274 603V511H1276V603H1274ZM1241 636C1259.23 636 1274 621.225 1274 603H1276C1276 622.33 1260.33 638 1241 638V636ZM1115 603C1115 621.225 1129.77 636 1148 636V638C1128.67 638 1113 622.33 1113 603H1115ZM1148 478C1129.77 478 1115 492.775 1115 511H1113C1113 491.67 1128.67 476 1148 476V478ZM1241 476C1260.33 476 1276 491.67 1276 511H1274C1274 492.775 1259.23 478 1241 478V476ZM1561 1H1468V-1H1561V1ZM1435 34V126H1433V34H1435ZM1468 159H1561V161H1468V159ZM1594 126V34H1596V126H1594ZM1561 159C1579.23 159 1594 144.225 1594 126H1596C1596 145.33 1580.33 161 1561 161V159ZM1435 126C1435 144.225 1449.77 159 1468 159V161C1448.67 161 1433 145.33 1433 126H1435ZM1468 1C1449.77 1 1435 15.7746 1435 34H1433C1433 14.67 1448.67 -1 1468 -1V1ZM1561 -1C1580.33 -1 1596 14.67 1596 34H1594C1594 15.7746 1579.23 1 1561 1V-1ZM1561 319H1468V317H1561V319ZM1435 352V444H1433V352H1435ZM1468 477H1561V479H1468V477ZM1594 444V352H1596V444H1594ZM1561 477C1579.23 477 1594 462.225 1594 444H1596C1596 463.33 1580.33 479 1561 479V477ZM1435 444C1435 462.225 1449.77 477 1468 477V479C1448.67 479 1433 463.33 1433 444H1435ZM1468 319C1449.77 319 1435 333.775 1435 352H1433C1433 332.67 1448.67 317 1468 317V319ZM1561 317C1580.33 317 1596 332.67 1596 352H1594C1594 333.775 1579.23 319 1561 319V317ZM1561 160H1468V158H1561V160ZM1435 193V285H1433V193H1435ZM1468 318H1561V320H1468V318ZM1594 285V193H1596V285H1594ZM1561 318C1579.23 318 1594 303.225 1594 285H1596C1596 304.33 1580.33 320 1561 320V318ZM1435 285C1435 303.225 1449.77 318 1468 318V320C1448.67 320 1433 304.33 1433 285H1435ZM1468 160C1449.77 160 1435 174.775 1435 193H1433C1433 173.67 1448.67 158 1468 158V160ZM1561 158C1580.33 158 1596 173.67 1596 193H1594C1594 174.775 1579.23 160 1561 160V158ZM1561 478H1468V476H1561V478ZM1435 511V603H1433V511H1435ZM1468 636H1561V638H1468V636ZM1594 603V511H1596V603H1594ZM1561 636C1579.23 636 1594 621.225 1594 603H1596C1596 622.33 1580.33 638 1561 638V636ZM1435 603C1435 621.225 1449.77 636 1468 636V638C1448.67 638 1433 622.33 1433 603H1435ZM1468 478C1449.77 478 1435 492.775 1435 511H1433C1433 491.67 1448.67 476 1468 476V478ZM1561 476C1580.33 476 1596 491.67 1596 511H1594C1594 492.775 1579.23 478 1561 478V476ZM1720 1H1628V-1H1720V1ZM1595 34V126H1593V34H1595ZM1628 159H1720V161H1628V159ZM1720 159C1738.23 159 1753 144.225 1753 126H1755C1755 145.33 1739.33 161 1720 161V159ZM1595 126C1595 144.225 1609.77 159 1628 159V161C1608.67 161 1593 145.33 1593 126H1595ZM1628 1C1609.77 1 1595 15.7746 1595 34H1593C1593 14.67 1608.67 -1 1628 -1V1ZM1720 -1C1739.33 -1 1755 14.67 1755 34H1753C1753 15.7746 1738.23 1 1720 1V-1ZM1720 319H1628V317H1720V319ZM1595 352V444H1593V352H1595ZM1628 477H1720V479H1628V477ZM1720 477C1738.23 477 1753 462.225 1753 444H1755C1755 463.33 1739.33 479 1720 479V477ZM1595 444C1595 462.225 1609.77 477 1628 477V479C1608.67 479 1593 463.33 1593 444H1595ZM1628 319C1609.77 319 1595 333.775 1595 352H1593C1593 332.67 1608.67 317 1628 317V319ZM1720 317C1739.33 317 1755 332.67 1755 352H1753C1753 333.775 1738.23 319 1720 319V317ZM1720 160H1628V158H1720V160ZM1595 193V285H1593V193H1595ZM1628 318H1720V320H1628V318ZM1720 318C1738.23 318 1753 303.225 1753 285H1755C1755 304.33 1739.33 320 1720 320V318ZM1595 285C1595 303.225 1609.77 318 1628 318V320C1608.67 320 1593 304.33 1593 285H1595ZM1628 160C1609.77 160 1595 174.775 1595 193H1593C1593 173.67 1608.67 158 1628 158V160ZM1720 158C1739.33 158 1755 173.67 1755 193H1753C1753 174.775 1738.23 160 1720 160V158ZM1720 478H1628V476H1720V478ZM1595 511V603H1593V511H1595ZM1628 636H1720V638H1628V636ZM1720 636C1738.23 636 1753 621.225 1753 603H1755C1755 622.33 1739.33 638 1720 638V636ZM1595 603C1595 621.225 1609.77 636 1628 636V638C1608.67 638 1593 622.33 1593 603H1595ZM1628 478C1609.77 478 1595 492.775 1595 511H1593C1593 491.67 1608.67 476 1628 476V478ZM1720 476C1739.33 476 1755 491.67 1755 511H1753C1753 492.775 1738.23 478 1720 478V476ZM1081 1H988V-1H1081V1ZM955 34V126H953V34H955ZM988 159H1081V161H988V159ZM1114 126V34H1116V126H1114ZM1081 159C1099.23 159 1114 144.225 1114 126H1116C1116 145.33 1100.33 161 1081 161V159ZM955 126C955 144.225 969.775 159 988 159V161C968.67 161 953 145.33 953 126H955ZM988 1C969.775 1 955 15.7746 955 34H953C953 14.67 968.67 -1 988 -1V1ZM1081 -1C1100.33 -1 1116 14.67 1116 34H1114C1114 15.7746 1099.23 1 1081 1V-1ZM1081 319H988V317H1081V319ZM955 352V444H953V352H955ZM988 477H1081V479H988V477ZM1114 444V352H1116V444H1114ZM1081 477C1099.23 477 1114 462.225 1114 444H1116C1116 463.33 1100.33 479 1081 479V477ZM955 444C955 462.225 969.775 477 988 477V479C968.67 479 953 463.33 953 444H955ZM988 319C969.775 319 955 333.775 955 352H953C953 332.67 968.67 317 988 317V319ZM1081 317C1100.33 317 1116 332.67 1116 352H1114C1114 333.775 1099.23 319 1081 319V317ZM1081 160H988V158H1081V160ZM955 193V285H953V193H955ZM988 318H1081V320H988V318ZM1114 285V193H1116V285H1114ZM1081 318C1099.23 318 1114 303.225 1114 285H1116C1116 304.33 1100.33 320 1081 320V318ZM955 285C955 303.225 969.775 318 988 318V320C968.67 320 953 304.33 953 285H955ZM988 160C969.775 160 955 174.775 955 193H953C953 173.67 968.67 158 988 158V160ZM1081 158C1100.33 158 1116 173.67 1116 193H1114C1114 174.775 1099.23 160 1081 160V158ZM1081 478H988V476H1081V478ZM955 511V603H953V511H955ZM988 636H1081V638H988V636ZM1114 603V511H1116V603H1114ZM1081 636C1099.23 636 1114 621.225 1114 603H1116C1116 622.33 1100.33 638 1081 638V636ZM955 603C955 621.225 969.775 636 988 636V638C968.67 638 953 622.33 953 603H955ZM988 478C969.775 478 955 492.775 955 511H953C953 491.67 968.67 476 988 476V478ZM1081 476C1100.33 476 1116 491.67 1116 511H1114C1114 492.775 1099.23 478 1081 478V476ZM1401 1H1308V-1H1401V1ZM1275 34V126H1273V34H1275ZM1308 159H1401V161H1308V159ZM1434 126V34H1436V126H1434ZM1401 159C1419.23 159 1434 144.225 1434 126H1436C1436 145.33 1420.33 161 1401 161V159ZM1275 126C1275 144.225 1289.77 159 1308 159V161C1288.67 161 1273 145.33 1273 126H1275ZM1308 1C1289.77 1 1275 15.7746 1275 34H1273C1273 14.67 1288.67 -1 1308 -1V1ZM1401 -1C1420.33 -1 1436 14.67 1436 34H1434C1434 15.7746 1419.23 1 1401 1V-1ZM1401 319H1308V317H1401V319ZM1275 352V444H1273V352H1275ZM1308 477H1401V479H1308V477ZM1434 444V352H1436V444H1434ZM1401 477C1419.23 477 1434 462.225 1434 444H1436C1436 463.33 1420.33 479 1401 479V477ZM1275 444C1275 462.225 1289.77 477 1308 477V479C1288.67 479 1273 463.33 1273 444H1275ZM1308 319C1289.77 319 1275 333.775 1275 352H1273C1273 332.67 1288.67 317 1308 317V319ZM1401 317C1420.33 317 1436 332.67 1436 352H1434C1434 333.775 1419.23 319 1401 319V317ZM1401 160H1308V158H1401V160ZM1275 193V285H1273V193H1275ZM1308 318H1401V320H1308V318ZM1434 285V193H1436V285H1434ZM1401 318C1419.23 318 1434 303.225 1434 285H1436C1436 304.33 1420.33 320 1401 320V318ZM1275 285C1275 303.225 1289.77 318 1308 318V320C1288.67 320 1273 304.33 1273 285H1275ZM1308 160C1289.77 160 1275 174.775 1275 193H1273C1273 173.67 1288.67 158 1308 158V160ZM1401 158C1420.33 158 1436 173.67 1436 193H1434C1434 174.775 1419.23 160 1401 160V158ZM1401 478H1308V476H1401V478ZM1275 511V603H1273V511H1275ZM1308 636H1401V638H1308V636ZM1434 603V511H1436V603H1434ZM1401 636C1419.23 636 1434 621.225 1434 603H1436C1436 622.33 1420.33 638 1401 638V636ZM1275 603C1275 621.225 1289.77 636 1308 636V638C1288.67 638 1273 622.33 1273 603H1275ZM1308 478C1289.77 478 1275 492.775 1275 511H1273C1273 491.67 1288.67 476 1308 476V478ZM1401 476C1420.33 476 1436 491.67 1436 511H1434C1434 492.775 1419.23 478 1401 478V476Z" fill="url(#paint1_linear_521_4480)" mask="url(#path-3-inside-2_521_4480)"/>
<defs>
<linearGradient id="paint0_linear_521_4480" x1="363.5" y1="1.85947e-07" x2="371" y2="683.5" gradientUnits="userSpaceOnUse">
<stop stop-color="#B1DD40" stop-opacity="0"/>
<stop offset="0.546875" stop-color="#B1DD40" stop-opacity="0.25"/>
<stop offset="0.9999" stop-color="#B1DD40" stop-opacity="0"/>
</linearGradient>
<linearGradient id="paint1_linear_521_4480" x1="1545.5" y1="1.85947e-07" x2="1538" y2="683.5" gradientUnits="userSpaceOnUse">
<stop stop-color="#B1DD40" stop-opacity="0"/>
<stop offset="0.546875" stop-color="#B1DD40" stop-opacity="0.25"/>
<stop offset="0.9999" stop-color="#B1DD40" stop-opacity="0"/>
</linearGradient>
</defs>
</svg>
