<svg width="24" height="24" viewBox="0 0 24 24" fill="none" xmlns="http://www.w3.org/2000/svg">
<path fill-rule="evenodd" clip-rule="evenodd" d="M4.79826 3.18006C4.41284 2.7845 3.77972 2.77628 3.38416 3.1617C2.9886 3.54713 2.98038 4.18024 3.36581 4.5758L10.344 11.7375L3.18104 18.7169C2.78548 19.1023 2.77726 19.7354 3.16268 20.131C3.5481 20.5265 4.18121 20.5348 4.57677 20.1493L11.7397 13.17L18.7189 20.3328C19.1043 20.7283 19.7374 20.7366 20.133 20.3511C20.5286 19.9657 20.5368 19.3326 20.1514 18.937L13.1722 11.7743L20.3338 4.79624C20.7293 4.41081 20.7375 3.7777 20.3521 3.38214C19.9667 2.98658 19.3336 2.97836 18.938 3.36378L11.7764 10.3418L4.79826 3.18006Z" fill="black"/>
</svg>
